<?xml version="1.0" encoding="utf-8"?>
<!-- Generator: Adobe Illustrator 22.1.0, SVG Export Plug-In . SVG Version: 6.00 Build 0)  -->
<svg version="1.1" id="Layer_1" xmlns="http://www.w3.org/2000/svg" xmlns:xlink="http://www.w3.org/1999/xlink" x="0px" y="0px"
	 viewBox="0 0 200 200" style="enable-background:new 0 0 200 200;" xml:space="preserve">
<style type="text/css">
	.st0{fill:#FFFFFF;}
	.st1{fill:#09C75B;}
</style>
<g>
	<circle class="st0" cx="100.2" cy="100.5" r="95.2"/>
	<path class="st1" d="M100.2,7.3c51.4,0,93.2,41.8,93.2,93.2s-41.8,93.2-93.2,93.2S7,151.9,7,100.5S48.8,7.3,100.2,7.3 M100.2,3.3
		C46.5,3.3,3,46.8,3,100.5s43.5,97.2,97.2,97.2s97.2-43.5,97.2-97.2S153.8,3.3,100.2,3.3L100.2,3.3z"/>
</g>
<polygon class="st1" points="130.7,117.3 142.1,165.2 100.2,139.5 58,165.2 69.4,117.3 32.1,85.1 81.1,81.4 100.2,35.8 119,81.4 
	168.3,85.1 "/>
</svg>
